<svg width="48" height="48" viewBox="0 0 264 264" fill="none" xmlns="http://www.w3.org/2000/svg">
<g filter="url(#filter0_d_288_11)">
<path d="M81.3565 2.22606L103.617 23.3738C111.965 31.1651 116.417 41.7391 116.417 53.426C116.417 64.5565 120.87 75.1304 128.661 82.9217L131.443 85.7043L157.043 2.78253" fill="white"/>
<path d="M4 75.3159L34.6087 74.2029C45.7391 73.6464 56.8695 78.0986 64.6608 85.8899C72.4521 93.6812 83.0261 97.5768 94.1565 97.5768H98.0521L56.8696 21.3334" fill="white"/>
<path d="M5.66958 181.983L26.2609 159.722C34.0522 151.374 44.6261 146.365 55.7565 146.365C66.887 146.365 76.9043 141.357 84.6957 133.565L87.4783 130.783L4 106.852" fill="white"/>
<path d="M81.3565 255.443L79.687 224.835C79.1305 213.704 83.0261 202.574 90.8174 194.226C98.0522 186.435 102.504 175.304 101.948 164.73V160.835L26.2609 203.687" fill="white"/>
<path d="M187.096 253.217L164.278 233.183C155.93 225.948 150.922 215.374 150.365 203.687C149.809 192.557 144.8 182.539 137.009 174.748L134.226 171.965L111.965 256" fill="white"/>
<path d="M259.443 175.861L228.835 178.087C217.704 179.2 206.574 175.304 198.226 167.513C189.878 160.278 179.304 156.383 168.174 156.939H164.278L208.8 231.513" fill="white"/>
<path d="M254.435 70.6782L234.957 94.0522C227.722 102.4 217.148 107.965 206.017 108.522C194.887 109.078 184.87 114.087 177.635 122.435L175.409 125.217L260 145.252" fill="white"/>
<path d="M175.965 0L178.748 30.6087C179.861 41.7391 176.522 52.8696 168.73 61.7739C161.496 70.1218 158.157 80.6956 158.713 91.8261L159.27 95.7217L232.731 49.5305" fill="white"/>
</g>
<defs>
<filter id="filter0_d_288_11" x="0" y="0" width="264" height="264" filterUnits="userSpaceOnUse" color-interpolation-filters="sRGB">
<feFlood flood-opacity="0" result="BackgroundImageFix"/>
<feColorMatrix in="SourceAlpha" type="matrix" values="0 0 0 0 0 0 0 0 0 0 0 0 0 0 0 0 0 0 127 0" result="hardAlpha"/>
<feOffset dy="4"/>
<feGaussianBlur stdDeviation="2"/>
<feComposite in2="hardAlpha" operator="out"/>
<feColorMatrix type="matrix" values="0 0 0 0 0 0 0 0 0 0 0 0 0 0 0 0 0 0 0.25 0"/>
<feBlend mode="normal" in2="BackgroundImageFix" result="effect1_dropShadow_288_11"/>
<feBlend mode="normal" in="SourceGraphic" in2="effect1_dropShadow_288_11" result="shape"/>
</filter>
</defs>
</svg>
